<?xml version="1.0" standalone="no"?><!DOCTYPE svg PUBLIC "-//W3C//DTD SVG 1.1//EN" "http://www.w3.org/Graphics/SVG/1.1/DTD/svg11.dtd"><svg t="1524470010530" class="icon" style="" viewBox="0 0 1024 1024" version="1.1" xmlns="http://www.w3.org/2000/svg" p-id="1034" xmlns:xlink="http://www.w3.org/1999/xlink" width="32" height="32"><defs><style type="text/css"></style></defs><path d="M558.545455 721.454545H155.927273C123.345455 721.454545 93.090909 691.2 93.090909 658.618182V318.836364C93.090909 286.254545 123.345455 256 155.927273 256h572.509091c32.581818 0 62.836364 30.254545 62.836363 62.836364V349.090909c0 13.963636 9.309091 23.272727 23.272728 23.272727s23.272727-9.309091 23.272727-23.272727v-30.254545c0-58.181818-51.2-109.381818-109.381818-109.381819H155.927273C97.745455 209.454545 46.545455 260.654545 46.545455 318.836364v339.781818C46.545455 716.8 97.745455 768 155.927273 768H558.545455c13.963636 0 23.272727-9.309091 23.272727-23.272727s-9.309091-23.272727-23.272727-23.272728z" p-id="1035" fill="#ffffff"></path><path d="M325.818182 349.090909h46.545454v46.545455h-46.545454zM418.909091 349.090909h186.181818v46.545455h-186.181818zM186.181818 465.454545h46.545455v46.545455H186.181818zM279.272727 465.454545h186.181818v46.545455h-186.181818zM372.363636 581.818182h186.181819v46.545454h-186.181819zM279.272727 581.818182h46.545455v46.545454h-46.545455zM802.909091 465.454545c-95.418182 0-174.545455 79.127273-174.545455 174.545455s79.127273 174.545455 174.545455 174.545455 174.545455-79.127273 174.545454-174.545455-79.127273-174.545455-174.545454-174.545455z m0 302.545455c-69.818182 0-128-58.181818-128-128s58.181818-128 128-128 128 58.181818 128 128-58.181818 128-128 128z" p-id="1036" fill="#ffffff"></path><path d="M900.654545 586.472727c-9.309091-9.309091-23.272727-9.309091-32.581818 0l-81.454545 81.454546-48.872727-48.872728c-9.309091-9.309091-23.272727-9.309091-32.581819 0-9.309091 9.309091-9.309091 23.272727 0 32.581819l65.163637 65.163636c9.309091 9.309091 23.272727 9.309091 32.581818 0l97.745454-97.745455c9.309091-9.309091 9.309091-23.272727 0-32.581818z" p-id="1037" fill="#ffffff"></path></svg>