<?xml version="1.0" standalone="no"?><!DOCTYPE svg PUBLIC "-//W3C//DTD SVG 1.1//EN" "http://www.w3.org/Graphics/SVG/1.1/DTD/svg11.dtd"><svg t="1524469185783" class="icon" style="" viewBox="0 0 1024 1024" version="1.1" xmlns="http://www.w3.org/2000/svg" p-id="667" xmlns:xlink="http://www.w3.org/1999/xlink" width="32" height="32"><defs><style type="text/css"></style></defs><path d="M558.545455 721.454545H155.927273C123.345455 721.454545 93.090909 691.2 93.090909 658.618182V318.836364C93.090909 286.254545 123.345455 256 155.927273 256h572.509091c32.581818 0 62.836364 30.254545 62.836363 62.836364V349.090909c0 13.963636 9.309091 23.272727 23.272728 23.272727s23.272727-9.309091 23.272727-23.272727v-30.254545c0-58.181818-51.2-109.381818-109.381818-109.381819H155.927273C97.745455 209.454545 46.545455 260.654545 46.545455 318.836364v339.781818C46.545455 716.8 97.745455 768 155.927273 768H558.545455c13.963636 0 23.272727-9.309091 23.272727-23.272727s-9.309091-23.272727-23.272727-23.272728z" p-id="668" fill="#ffffff"></path><path d="M325.818182 349.090909h46.545454v46.545455h-46.545454zM418.909091 349.090909h186.181818v46.545455h-186.181818zM186.181818 465.454545h46.545455v46.545455H186.181818zM279.272727 465.454545h186.181818v46.545455h-186.181818zM279.272727 581.818182h46.545455v46.545454h-46.545455zM372.363636 581.818182h186.181819v46.545454h-186.181819zM802.909091 465.454545c-95.418182 0-174.545455 79.127273-174.545455 174.545455s79.127273 174.545455 174.545455 174.545455 174.545455-79.127273 174.545454-174.545455-79.127273-174.545455-174.545454-174.545455z m0 302.545455c-69.818182 0-128-58.181818-128-128 0-23.272727 6.981818-44.218182 16.290909-62.836364l174.545455 174.545455c-18.618182 9.309091-39.563636 16.290909-62.836364 16.290909z m97.745454-46.545455L721.454545 542.254545c23.272727-18.618182 51.2-30.254545 81.454546-30.254545 69.818182 0 128 58.181818 128 128 0 30.254545-11.636364 60.509091-30.254546 81.454545z" p-id="669" fill="#ffffff"></path></svg>